STARTFONT 2.1
FONT -cannam-garamond-bold-r-normal--14-140-75-75-p-90-iso8859-1
SIZE 12 83 83
FONTBOUNDINGBOX 17 17 0 -4
STARTPROPERTIES 17
POINT_SIZE 120
PIXEL_SIZE 14
RESOLUTION_X 83
RESOLUTION_Y 83
FONT_ASCENT 14
FONT_DESCENT 5
AVERAGE_WIDTH 90
SPACING "P"
_XMBDFED_INFO "Edited with xmbdfed 1.5."
FOUNDRY "xmbdfed"
FAMILY_NAME "Unknown"
WEIGHT_NAME "Bold"
SLANT "R"
SETWIDTH_NAME "Normal"
ADD_STYLE_NAME ""
CHARSET_REGISTRY "FontSpecific"
CHARSET_ENCODING "0"
ENDPROPERTIES
CHARS 189
STARTCHAR char32
ENCODING 32
SWIDTH 289 0
DWIDTH 4 0
BBX 0 0 0 0
BITMAP
ENDCHAR
STARTCHAR char33
ENCODING 33
SWIDTH 361 0
DWIDTH 5 0
BBX 3 11 2 0
BITMAP
C0
E0
C0
C0
C0
C0
C0
00
00
C0
C0
ENDCHAR
STARTCHAR char34
ENCODING 34
SWIDTH 433 0
DWIDTH 6 0
BBX 6 4 1 7
BITMAP
6C
6C
D8
D8
ENDCHAR
STARTCHAR char35
ENCODING 35
SWIDTH 867 0
DWIDTH 12 0
BBX 12 12 0 -3
BITMAP
0440
0440
0440
0880
7FF0
0880
1100
FFE0
1100
2200
2200
2200
ENDCHAR
STARTCHAR char115
ENCODING 36
SWIDTH 506 0
DWIDTH 7 0
BBX 7 11 0 -2
BITMAP
10
10
3C
54
70
3C
16
96
7C
10
10
ENDCHAR
STARTCHAR char47
ENCODING 37
SWIDTH 867 0
DWIDTH 12 0
BBX 12 12 0 -1
BITMAP
00C0
7080
D980
DB00
7300
0600
0600
0CE0
0DB0
19B0
10E0
3000
ENDCHAR
STARTCHAR char38
ENCODING 38
SWIDTH 795 0
DWIDTH 11 0
BBX 11 11 1 0
BITMAP
3800
6400
6400
3860
31C0
3880
6D00
C600
C700
C980
7060
ENDCHAR
STARTCHAR char39
ENCODING 39
SWIDTH 361 0
DWIDTH 5 0
BBX 3 5 1 6
BITMAP
C0
E0
60
40
80
ENDCHAR
STARTCHAR char41
ENCODING 40
SWIDTH 361 0
DWIDTH 5 0
BBX 4 14 1 -1
BITMAP
10
20
60
60
C0
C0
C0
C0
C0
C0
60
60
20
10
ENDCHAR
STARTCHAR char41
ENCODING 41
SWIDTH 361 0
DWIDTH 5 0
BBX 4 14 1 -1
BITMAP
80
40
60
60
30
30
30
30
30
30
60
60
40
80
ENDCHAR
STARTCHAR char42
ENCODING 42
SWIDTH 650 0
DWIDTH 9 0
BBX 8 5 1 7
BITMAP
18
DB
66
DB
18
ENDCHAR
STARTCHAR char43
ENCODING 43
SWIDTH 650 0
DWIDTH 9 0
BBX 8 7 1 0
BITMAP
10
18
18
FF
18
18
08
ENDCHAR
STARTCHAR char44
ENCODING 44
SWIDTH 433 0
DWIDTH 6 0
BBX 3 5 2 -2
BITMAP
C0
E0
60
40
80
ENDCHAR
STARTCHAR char45
ENCODING 45
SWIDTH 578 0
DWIDTH 8 0
BBX 7 1 1 3
BITMAP
FE
ENDCHAR
STARTCHAR char46
ENCODING 46
SWIDTH 433 0
DWIDTH 6 0
BBX 2 2 2 0
BITMAP
C0
C0
ENDCHAR
STARTCHAR char47
ENCODING 47
SWIDTH 578 0
DWIDTH 8 0
BBX 7 12 1 -2
BITMAP
04
06
0C
0C
18
18
30
30
60
60
C0
40
ENDCHAR
STARTCHAR char48
ENCODING 48
SWIDTH 722 0
DWIDTH 10 0
BBX 8 7 1 0
BITMAP
3C
66
C3
C3
C3
66
3C
ENDCHAR
STARTCHAR char49
ENCODING 49
SWIDTH 361 0
DWIDTH 5 0
BBX 4 7 1 0
BITMAP
F0
60
60
60
60
60
F0
ENDCHAR
STARTCHAR char50
ENCODING 50
SWIDTH 578 0
DWIDTH 8 0
BBX 7 7 1 0
BITMAP
70
B8
38
30
30
66
FC
ENDCHAR
STARTCHAR char51
ENCODING 51
SWIDTH 506 0
DWIDTH 7 0
BBX 6 11 1 -4
BITMAP
70
98
18
30
60
F8
1C
1C
18
30
C0
ENDCHAR
STARTCHAR char52
ENCODING 52
SWIDTH 650 0
DWIDTH 9 0
BBX 8 10 1 -3
BITMAP
0C
1C
1C
2C
4C
4C
FF
0C
0C
0C
ENDCHAR
STARTCHAR char53
ENCODING 53
SWIDTH 433 0
DWIDTH 6 0
BBX 5 11 1 -4
BITMAP
78
60
60
70
30
18
18
18
30
20
C0
ENDCHAR
STARTCHAR char54
ENCODING 54
SWIDTH 506 0
DWIDTH 7 0
BBX 6 11 1 0
BITMAP
04
08
10
30
60
60
F8
CC
CC
CC
78
ENDCHAR
STARTCHAR char55
ENCODING 55
SWIDTH 578 0
DWIDTH 8 0
BBX 7 11 1 -4
BITMAP
FE
8C
0C
18
18
30
30
60
60
40
40
ENDCHAR
STARTCHAR char56
ENCODING 56
SWIDTH 578 0
DWIDTH 8 0
BBX 6 11 1 0
BITMAP
78
CC
C4
CC
68
30
58
CC
8C
CC
78
ENDCHAR
STARTCHAR char54
ENCODING 57
SWIDTH 578 0
DWIDTH 8 0
BBX 6 11 1 -4
BITMAP
78
CC
CC
CC
7C
18
18
30
20
40
80
ENDCHAR
STARTCHAR char58
ENCODING 58
SWIDTH 433 0
DWIDTH 6 0
BBX 2 6 2 1
BITMAP
C0
C0
00
00
C0
C0
ENDCHAR
STARTCHAR char58
ENCODING 59
SWIDTH 361 0
DWIDTH 5 0
BBX 3 9 2 -2
BITMAP
C0
C0
00
00
C0
E0
60
40
80
ENDCHAR
STARTCHAR char60
ENCODING 60
SWIDTH 722 0
DWIDTH 10 0
BBX 9 7 1 0
BITMAP
0380
0E00
3800
E000
3800
0E00
0380
ENDCHAR
STARTCHAR char61
ENCODING 61
SWIDTH 578 0
DWIDTH 8 0
BBX 7 4 1 2
BITMAP
FE
00
00
FE
ENDCHAR
STARTCHAR char62
ENCODING 62
SWIDTH 722 0
DWIDTH 10 0
BBX 9 7 1 0
BITMAP
E000
3800
0E00
0380
0E00
3800
E000
ENDCHAR
STARTCHAR char63
ENCODING 63
SWIDTH 506 0
DWIDTH 7 0
BBX 6 12 1 0
BITMAP
80
F0
18
0C
0C
78
60
60
00
00
60
60
ENDCHAR
STARTCHAR char111
ENCODING 64
SWIDTH 939 0
DWIDTH 13 0
BBX 12 12 1 -2
BITMAP
0F00
30C0
6060
4FA0
9990
9090
9090
99B0
4EE0
6000
3000
0FC0
ENDCHAR
STARTCHAR char32
ENCODING 65
SWIDTH 795 0
DWIDTH 11 0
BBX 11 12 0 0
BITMAP
0400
0600
0E00
0A00
0B00
1300
1180
1F80
2180
20C0
20C0
F1E0
ENDCHAR
STARTCHAR char33
ENCODING 66
SWIDTH 722 0
DWIDTH 10 0
BBX 9 12 1 0
BITMAP
FC00
6600
6300
6300
6600
7C00
6300
6180
6180
6180
6300
FE00
ENDCHAR
STARTCHAR char34
ENCODING 67
SWIDTH 795 0
DWIDTH 11 0
BBX 10 12 1 0
BITMAP
0F80
38C0
6000
6000
C000
C000
C000
C000
6000
6000
38C0
0F80
ENDCHAR
STARTCHAR char35
ENCODING 68
SWIDTH 795 0
DWIDTH 11 0
BBX 10 12 1 0
BITMAP
FC00
6300
6180
6080
60C0
60C0
60C0
60C0
6080
6180
6300
FC00
ENDCHAR
STARTCHAR char36
ENCODING 69
SWIDTH 722 0
DWIDTH 10 0
BBX 9 12 1 0
BITMAP
FE00
6300
6000
6000
6000
7F00
6000
6000
6000
6000
6180
FF00
ENDCHAR
STARTCHAR char102
ENCODING 70
SWIDTH 578 0
DWIDTH 8 0
BBX 8 12 1 0
BITMAP
FE
63
60
60
60
7E
60
60
60
60
60
F0
ENDCHAR
STARTCHAR char34
ENCODING 71
SWIDTH 939 0
DWIDTH 13 0
BBX 12 12 1 0
BITMAP
0FC0
3860
6000
6000
C000
C000
C0F0
C060
6060
6060
3860
0FC0
ENDCHAR
STARTCHAR char104
ENCODING 72
SWIDTH 867 0
DWIDTH 12 0
BBX 11 12 1 0
BITMAP
F1E0
60C0
60C0
60C0
60C0
7FC0
60C0
60C0
60C0
60C0
60C0
F1E0
ENDCHAR
STARTCHAR char105
ENCODING 73
SWIDTH 361 0
DWIDTH 5 0
BBX 4 12 1 0
BITMAP
F0
60
60
60
60
60
60
60
60
60
60
F0
ENDCHAR
STARTCHAR char106
ENCODING 74
SWIDTH 361 0
DWIDTH 5 0
BBX 5 16 0 -4
BITMAP
78
30
30
30
30
30
30
30
30
30
30
30
30
60
60
80
ENDCHAR
STARTCHAR char107
ENCODING 75
SWIDTH 795 0
DWIDTH 11 0
BBX 11 12 1 0
BITMAP
F3C0
6100
6200
6400
6800
7000
7800
6C00
6600
6300
6180
F1E0
ENDCHAR
STARTCHAR char108
ENCODING 76
SWIDTH 722 0
DWIDTH 10 0
BBX 9 12 1 0
BITMAP
F000
6000
6000
6000
6000
6000
6000
6000
6000
6000
6180
FF00
ENDCHAR
STARTCHAR char109
ENCODING 77
SWIDTH 1084 0
DWIDTH 15 0
BBX 14 12 1 0
BITMAP
E01C
6018
7038
7038
5858
5858
4C98
4C98
4718
4718
4218
E23C
ENDCHAR
STARTCHAR char110
ENCODING 78
SWIDTH 1084 0
DWIDTH 15 0
BBX 14 12 1 0
BITMAP
E03C
7018
7818
6C18
6618
6318
6198
60D8
6078
6038
6018
F008
ENDCHAR
STARTCHAR char111
ENCODING 79
SWIDTH 1012 0
DWIDTH 14 0
BBX 13 12 1 0
BITMAP
0F80
38E0
6030
6030
C018
C018
C018
C018
6030
6030
38E0
0F80
ENDCHAR
STARTCHAR char112
ENCODING 80
SWIDTH 650 0
DWIDTH 9 0
BBX 9 12 1 0
BITMAP
FE00
6300
6180
6180
6180
6100
6E00
6000
6000
6000
6000
F000
ENDCHAR
STARTCHAR char111
ENCODING 81
SWIDTH 939 0
DWIDTH 13 0
BBX 15 16 1 -4
BITMAP
0F00
30C0
6060
4020
C030
C030
C030
C030
4020
6060
38C0
0F00
0380
00C0
0070
001E
ENDCHAR
STARTCHAR char112
ENCODING 82
SWIDTH 795 0
DWIDTH 11 0
BBX 11 12 1 0
BITMAP
FE00
6300
6180
6180
6180
6100
7E00
6C00
6600
6300
6180
F1E0
ENDCHAR
STARTCHAR char115
ENCODING 83
SWIDTH 650 0
DWIDTH 9 0
BBX 8 12 1 0
BITMAP
1E
23
60
60
30
1C
06
03
03
03
C6
7C
ENDCHAR
STARTCHAR char116
ENCODING 84
SWIDTH 722 0
DWIDTH 10 0
BBX 12 12 0 0
BITMAP
FFF0
C630
0600
0600
0600
0600
0600
0600
0600
0600
0600
0F00
ENDCHAR
STARTCHAR char117
ENCODING 85
SWIDTH 939 0
DWIDTH 13 0
BBX 12 12 1 0
BITMAP
F0F0
6060
6060
6060
6060
6060
6060
6060
6060
30C0
30C0
1F80
ENDCHAR
STARTCHAR char109
ENCODING 86
SWIDTH 867 0
DWIDTH 12 0
BBX 13 12 0 0
BITMAP
F078
7030
3020
3820
1840
1C40
0C80
0E80
0700
0700
0200
0200
ENDCHAR
STARTCHAR char109
ENCODING 87
SWIDTH 1084 0
DWIDTH 15 0
BBX 17 12 0 0
BITMAP
FF7B80
773300
332200
3BA200
19C400
1DC400
0CC800
0EE800
077000
077000
022000
022000
ENDCHAR
STARTCHAR char109
ENCODING 88
SWIDTH 722 0
DWIDTH 10 0
BBX 11 12 0 0
BITMAP
F9E0
70C0
3180
1900
1A00
0E00
0E00
1A00
1300
3180
61C0
F3E0
ENDCHAR
STARTCHAR char121
ENCODING 89
SWIDTH 795 0
DWIDTH 11 0
BBX 12 12 0 0
BITMAP
F8F0
3040
1840
1880
0D00
0D00
0600
0600
0600
0600
0600
0F00
ENDCHAR
STARTCHAR char122
ENCODING 90
SWIDTH 795 0
DWIDTH 11 0
BBX 10 12 1 0
BITMAP
7FC0
C380
0300
0700
0600
0C00
1C00
1800
3000
3000
70C0
FFC0
ENDCHAR
STARTCHAR char91
ENCODING 91
SWIDTH 361 0
DWIDTH 5 0
BBX 3 14 2 -1
BITMAP
E0
C0
C0
C0
C0
C0
C0
C0
C0
C0
C0
C0
C0
E0
ENDCHAR
STARTCHAR char47
ENCODING 92
SWIDTH 578 0
DWIDTH 8 0
BBX 7 12 1 -2
BITMAP
C0
C0
60
60
30
30
18
18
0C
0C
06
06
ENDCHAR
STARTCHAR char93
ENCODING 93
SWIDTH 216 0
DWIDTH 3 0
BBX 3 14 1 -1
BITMAP
E0
60
60
60
60
60
60
60
60
60
60
60
60
E0
ENDCHAR
STARTCHAR char94
ENCODING 94
SWIDTH 578 0
DWIDTH 8 0
BBX 7 4 1 8
BITMAP
10
38
6C
C6
ENDCHAR
STARTCHAR char95
ENCODING 95
SWIDTH 722 0
DWIDTH 10 0
BBX 11 1 0 -1
BITMAP
FFE0
ENDCHAR
STARTCHAR char96
ENCODING 96
SWIDTH 361 0
DWIDTH 5 0
BBX 3 5 2 6
BITMAP
20
40
C0
E0
60
ENDCHAR
STARTCHAR char32
ENCODING 97
SWIDTH 578 0
DWIDTH 8 0
BBX 7 7 1 0
BITMAP
38
5C
0C
1C
6C
CC
76
ENDCHAR
STARTCHAR char33
ENCODING 98
SWIDTH 578 0
DWIDTH 8 0
BBX 8 13 0 0
BITMAP
60
E0
60
60
60
60
6C
76
63
63
63
62
3C
ENDCHAR
STARTCHAR char34
ENCODING 99
SWIDTH 578 0
DWIDTH 8 0
BBX 7 7 1 0
BITMAP
3C
46
C0
C0
C0
E6
7C
ENDCHAR
STARTCHAR char35
ENCODING 100
SWIDTH 650 0
DWIDTH 9 0
BBX 8 13 1 0
BITMAP
06
0E
06
06
06
06
3E
4E
C6
C6
C6
66
3F
ENDCHAR
STARTCHAR char36
ENCODING 101
SWIDTH 578 0
DWIDTH 8 0
BBX 7 7 1 0
BITMAP
3C
66
FE
C0
C0
E6
7C
ENDCHAR
STARTCHAR char102
ENCODING 102
SWIDTH 433 0
DWIDTH 6 0
BBX 7 13 1 0
BITMAP
1C
26
60
60
60
60
FC
60
60
60
60
60
F0
ENDCHAR
STARTCHAR char103
ENCODING 103
SWIDTH 578 0
DWIDTH 8 0
BBX 7 11 1 -4
BITMAP
7E
CC
C4
EC
78
C0
FC
46
C6
CC
78
ENDCHAR
STARTCHAR char104
ENCODING 104
SWIDTH 722 0
DWIDTH 10 0
BBX 9 13 1 0
BITMAP
6000
E000
6000
6000
6000
6000
6E00
7700
6300
6300
6300
6300
F780
ENDCHAR
STARTCHAR char105
ENCODING 105
SWIDTH 361 0
DWIDTH 5 0
BBX 4 11 1 0
BITMAP
60
60
00
00
60
E0
60
60
60
60
F0
ENDCHAR
STARTCHAR char106
ENCODING 106
SWIDTH 289 0
DWIDTH 4 0
BBX 3 15 1 -4
BITMAP
60
60
00
00
60
E0
60
60
60
60
60
60
60
40
80
ENDCHAR
STARTCHAR char107
ENCODING 107
SWIDTH 650 0
DWIDTH 9 0
BBX 9 13 1 0
BITMAP
6000
E000
6000
6000
6000
6000
6F00
6400
6800
7800
6C00
6600
F780
ENDCHAR
STARTCHAR char108
ENCODING 108
SWIDTH 361 0
DWIDTH 5 0
BBX 4 13 1 0
BITMAP
60
E0
60
60
60
60
60
60
60
60
60
60
F0
ENDCHAR
STARTCHAR char109
ENCODING 109
SWIDTH 939 0
DWIDTH 13 0
BBX 12 7 1 0
BITMAP
6CC0
F760
6660
6660
6660
6660
F770
ENDCHAR
STARTCHAR char110
ENCODING 110
SWIDTH 722 0
DWIDTH 10 0
BBX 9 7 1 0
BITMAP
5E00
F700
6300
6300
6300
6300
F780
ENDCHAR
STARTCHAR char111
ENCODING 111
SWIDTH 650 0
DWIDTH 9 0
BBX 8 7 1 0
BITMAP
3E
47
C3
C3
C3
E2
7C
ENDCHAR
STARTCHAR char112
ENCODING 112
SWIDTH 650 0
DWIDTH 9 0
BBX 8 11 1 -4
BITMAP
EC
76
63
63
63
73
7E
60
60
60
F0
ENDCHAR
STARTCHAR char113
ENCODING 113
SWIDTH 650 0
DWIDTH 9 0
BBX 8 11 1 -4
BITMAP
37
6E
C6
C6
C6
CE
7E
06
06
06
0F
ENDCHAR
STARTCHAR char114
ENCODING 114
SWIDTH 506 0
DWIDTH 7 0
BBX 6 7 1 0
BITMAP
6C
F4
60
60
60
60
F0
ENDCHAR
STARTCHAR char115
ENCODING 115
SWIDTH 433 0
DWIDTH 6 0
BBX 6 7 0 0
BITMAP
3C
64
70
38
0C
CC
78
ENDCHAR
STARTCHAR char116
ENCODING 116
SWIDTH 433 0
DWIDTH 6 0
BBX 5 8 1 0
BITMAP
60
F8
60
60
60
60
60
38
ENDCHAR
STARTCHAR char117
ENCODING 117
SWIDTH 650 0
DWIDTH 9 0
BBX 8 7 1 0
BITMAP
EE
66
66
66
66
76
3B
ENDCHAR
STARTCHAR char118
ENCODING 118
SWIDTH 578 0
DWIDTH 8 0
BBX 8 7 0 0
BITMAP
E7
62
32
34
1C
18
08
ENDCHAR
STARTCHAR char119
ENCODING 119
SWIDTH 795 0
DWIDTH 11 0
BBX 11 7 0 0
BITMAP
FEE0
6C40
3640
3680
1F80
1B00
0900
ENDCHAR
STARTCHAR char120
ENCODING 120
SWIDTH 578 0
DWIDTH 8 0
BBX 7 7 1 0
BITMAP
EE
64
38
38
38
4C
EE
ENDCHAR
STARTCHAR char121
ENCODING 121
SWIDTH 506 0
DWIDTH 7 0
BBX 8 11 0 -4
BITMAP
EF
46
26
34
1C
1C
18
10
30
60
40
ENDCHAR
STARTCHAR char122
ENCODING 122
SWIDTH 650 0
DWIDTH 9 0
BBX 8 7 1 0
BITMAP
FE
8C
18
38
30
63
FE
ENDCHAR
STARTCHAR char123
ENCODING 123
SWIDTH 433 0
DWIDTH 6 0
BBX 5 15 1 -2
BITMAP
38
60
60
60
20
30
18
F0
18
30
20
60
60
60
38
ENDCHAR
STARTCHAR char123
ENCODING 125
SWIDTH 361 0
DWIDTH 5 0
BBX 5 15 1 -2
BITMAP
E0
30
30
30
20
60
C0
78
C0
60
20
30
30
30
E0
ENDCHAR
STARTCHAR char126
ENCODING 126
SWIDTH 578 0
DWIDTH 8 0
BBX 7 3 1 9
BITMAP
72
D6
9C
ENDCHAR
STARTCHAR char33
ENCODING 161
SWIDTH 361 0
DWIDTH 5 0
BBX 3 11 1 0
BITMAP
60
60
00
00
60
60
60
60
60
E0
60
ENDCHAR
STARTCHAR char34
ENCODING 162
SWIDTH 578 0
DWIDTH 8 0
BBX 7 11 1 -2
BITMAP
10
10
3C
56
D0
D0
D0
F6
7C
10
10
ENDCHAR
STARTCHAR char30
ENCODING 163
SWIDTH 722 0
DWIDTH 10 0
BBX 10 15 0 -3
BITMAP
1E00
3200
6000
6000
6000
3000
3000
1800
7E00
1800
3000
7800
8C00
0600
01C0
ENDCHAR
STARTCHAR char164
ENCODING 164
SWIDTH 650 0
DWIDTH 9 0
BBX 9 9 1 -1
BITMAP
8080
5D00
2200
4100
4100
4100
2200
5D00
8080
ENDCHAR
STARTCHAR char121
ENCODING 165
SWIDTH 722 0
DWIDTH 10 0
BBX 11 12 0 0
BITMAP
F1E0
2080
3080
1100
1900
7FC0
0E00
0400
7FC0
0400
0400
0E00
ENDCHAR
STARTCHAR char124
ENCODING 166
SWIDTH 361 0
DWIDTH 5 0
BBX 1 12 2 0
BITMAP
80
80
80
80
80
00
00
80
80
80
80
80
ENDCHAR
STARTCHAR char167
ENCODING 167
SWIDTH 433 0
DWIDTH 6 0
BBX 4 12 2 -1
BITMAP
60
90
80
40
60
90
90
60
20
10
90
60
ENDCHAR
STARTCHAR char168
ENCODING 168
SWIDTH 506 0
DWIDTH 7 0
BBX 5 2 2 10
BITMAP
88
88
ENDCHAR
STARTCHAR char111
ENCODING 169
SWIDTH 939 0
DWIDTH 13 0
BBX 12 12 1 -2
BITMAP
0F00
30C0
6060
4F20
9890
9010
9010
9890
4F20
6060
30C0
0F00
ENDCHAR
STARTCHAR char170
ENCODING 170
SWIDTH 433 0
DWIDTH 6 0
BBX 5 5 1 7
BITMAP
60
10
70
90
68
ENDCHAR
STARTCHAR char171
ENCODING 171
SWIDTH 506 0
DWIDTH 7 0
BBX 6 5 1 1
BITMAP
24
48
90
48
24
ENDCHAR
STARTCHAR char172
ENCODING 172
SWIDTH 506 0
DWIDTH 7 0
BBX 6 2 1 2
BITMAP
FC
04
ENDCHAR
STARTCHAR char173
ENCODING 173
SWIDTH 361 0
DWIDTH 5 0
BBX 4 1 1 3
BITMAP
F0
ENDCHAR
STARTCHAR char111
ENCODING 174
SWIDTH 650 0
DWIDTH 9 0
BBX 8 8 1 5
BITMAP
3C
42
B9
AD
B9
AD
42
3C
ENDCHAR
STARTCHAR char175
ENCODING 175
SWIDTH 361 0
DWIDTH 5 0
BBX 4 1 1 10
BITMAP
F0
ENDCHAR
STARTCHAR char176
ENCODING 176
SWIDTH 361 0
DWIDTH 5 0
BBX 4 4 1 8
BITMAP
60
90
90
60
ENDCHAR
STARTCHAR char177
ENCODING 177
SWIDTH 433 0
DWIDTH 6 0
BBX 5 7 1 0
BITMAP
20
20
F8
20
20
00
F8
ENDCHAR
STARTCHAR char178
ENCODING 178
SWIDTH 433 0
DWIDTH 6 0
BBX 5 6 1 6
BITMAP
60
90
10
20
40
F8
ENDCHAR
STARTCHAR char179
ENCODING 179
SWIDTH 361 0
DWIDTH 5 0
BBX 4 6 1 6
BITMAP
F0
20
60
10
10
E0
ENDCHAR
STARTCHAR char180
ENCODING 180
SWIDTH 361 0
DWIDTH 5 0
BBX 3 3 1 9
BITMAP
60
40
80
ENDCHAR
STARTCHAR char181
ENCODING 181
SWIDTH 722 0
DWIDTH 10 0
BBX 9 10 1 -3
BITMAP
6200
6380
6300
6300
6300
7600
6C00
6000
4000
8000
ENDCHAR
STARTCHAR char182
ENCODING 182
SWIDTH 433 0
DWIDTH 6 0
BBX 5 11 1 0
BITMAP
78
E8
E8
E8
68
28
28
28
28
28
28
ENDCHAR
STARTCHAR char183
ENCODING 183
SWIDTH 289 0
DWIDTH 4 0
BBX 2 2 2 2
BITMAP
C0
C0
ENDCHAR
STARTCHAR char184
ENCODING 184
SWIDTH 361 0
DWIDTH 5 0
BBX 3 2 2 -2
BITMAP
20
C0
ENDCHAR
STARTCHAR char185
ENCODING 185
SWIDTH 289 0
DWIDTH 4 0
BBX 2 6 2 6
BITMAP
40
C0
40
40
40
40
ENDCHAR
STARTCHAR char186
ENCODING 186
SWIDTH 361 0
DWIDTH 5 0
BBX 4 6 1 6
BITMAP
60
90
90
90
90
60
ENDCHAR
STARTCHAR char187
ENCODING 187
SWIDTH 506 0
DWIDTH 7 0
BBX 6 5 1 1
BITMAP
90
48
24
48
90
ENDCHAR
STARTCHAR char188
ENCODING 188
SWIDTH 867 0
DWIDTH 12 0
BBX 11 12 1 0
BITMAP
4100
C100
4200
4200
4400
4400
0840
08C0
1140
1240
23E0
2040
ENDCHAR
STARTCHAR char188
ENCODING 189
SWIDTH 867 0
DWIDTH 12 0
BBX 11 12 1 0
BITMAP
4100
C100
4200
4200
4400
4400
08C0
0920
1020
1040
2080
21E0
ENDCHAR
STARTCHAR char188
ENCODING 190
SWIDTH 867 0
DWIDTH 12 0
BBX 12 12 1 0
BITMAP
F080
2080
6100
1100
1200
E200
0420
0460
08A0
0920
11F0
1020
ENDCHAR
STARTCHAR char63
ENCODING 191
SWIDTH 506 0
DWIDTH 7 0
BBX 6 12 1 0
BITMAP
18
18
00
00
18
18
78
C0
C0
60
3C
04
ENDCHAR
STARTCHAR char32
ENCODING 192
SWIDTH 795 0
DWIDTH 11 0
BBX 11 13 0 0
BITMAP
1800
0C00
0000
0E00
0A00
0B00
1300
1180
1F80
2180
20C0
20C0
F1E0
ENDCHAR
STARTCHAR char32
ENCODING 193
SWIDTH 795 0
DWIDTH 11 0
BBX 11 13 0 0
BITMAP
0300
0600
0000
0E00
0A00
0B00
1300
1180
1F80
2180
20C0
20C0
F1E0
ENDCHAR
STARTCHAR char32
ENCODING 194
SWIDTH 795 0
DWIDTH 11 0
BBX 11 13 0 0
BITMAP
0600
0B00
0000
0E00
0A00
0B00
1300
1180
1F80
2180
20C0
20C0
F1E0
ENDCHAR
STARTCHAR char32
ENCODING 195
SWIDTH 795 0
DWIDTH 11 0
BBX 11 13 0 0
BITMAP
0600
0B00
0000
0E00
0A00
0B00
1300
1180
1F80
2180
20C0
20C0
F1E0
ENDCHAR
STARTCHAR char32
ENCODING 196
SWIDTH 795 0
DWIDTH 11 0
BBX 11 13 0 0
BITMAP
1B00
1B00
0000
0E00
0A00
0B00
1300
1180
1F80
2180
20C0
20C0
F1E0
ENDCHAR
STARTCHAR char32
ENCODING 197
SWIDTH 795 0
DWIDTH 11 0
BBX 11 13 0 0
BITMAP
0F00
1980
0F00
0000
0F00
0B00
1300
1180
1F80
2180
20C0
20C0
F1E0
ENDCHAR
STARTCHAR char198
ENCODING 198
SWIDTH 1012 0
DWIDTH 14 0
BBX 14 12 0 0
BITMAP
07F0
0598
0580
0980
0980
19F0
1180
1F80
3180
2180
618C
F3F8
ENDCHAR
STARTCHAR char34
ENCODING 199
SWIDTH 795 0
DWIDTH 11 0
BBX 10 16 1 -4
BITMAP
0F80
38C0
6000
6000
C000
C000
C000
C000
6000
6000
38C0
0F80
0400
0600
0300
0E00
ENDCHAR
STARTCHAR char200
ENCODING 200
SWIDTH 650 0
DWIDTH 9 0
BBX 8 13 1 0
BITMAP
60
30
00
FC
66
60
60
7E
60
60
60
63
FE
ENDCHAR
STARTCHAR char200
ENCODING 201
SWIDTH 650 0
DWIDTH 9 0
BBX 8 13 1 0
BITMAP
0C
18
00
FC
66
60
60
7E
60
60
60
63
FE
ENDCHAR
STARTCHAR char200
ENCODING 202
SWIDTH 650 0
DWIDTH 9 0
BBX 8 13 1 0
BITMAP
30
58
00
FC
66
60
60
7E
60
60
60
63
FE
ENDCHAR
STARTCHAR char200
ENCODING 203
SWIDTH 650 0
DWIDTH 9 0
BBX 8 13 1 0
BITMAP
6C
6C
00
FC
66
60
60
7E
60
60
60
63
FE
ENDCHAR
STARTCHAR char204
ENCODING 204
SWIDTH 361 0
DWIDTH 5 0
BBX 4 13 1 0
BITMAP
C0
60
00
F0
60
60
60
60
60
60
60
60
F0
ENDCHAR
STARTCHAR char204
ENCODING 205
SWIDTH 361 0
DWIDTH 5 0
BBX 4 13 1 0
BITMAP
30
60
00
F0
60
60
60
60
60
60
60
60
F0
ENDCHAR
STARTCHAR char204
ENCODING 206
SWIDTH 361 0
DWIDTH 5 0
BBX 4 13 1 0
BITMAP
60
B0
00
F0
60
60
60
60
60
60
60
60
F0
ENDCHAR
STARTCHAR char204
ENCODING 207
SWIDTH 361 0
DWIDTH 5 0
BBX 4 13 1 0
BITMAP
90
B0
00
F0
60
60
60
60
60
60
60
60
F0
ENDCHAR
STARTCHAR char35
ENCODING 208
SWIDTH 795 0
DWIDTH 11 0
BBX 11 12 0 0
BITMAP
7E00
3180
30C0
3040
3060
FC60
3060
3060
3040
30C0
3180
7E00
ENDCHAR
STARTCHAR char110
ENCODING 209
SWIDTH 1084 0
DWIDTH 15 0
BBX 14 13 1 0
BITMAP
0680
EB3C
7018
7818
6C18
6618
6318
6198
60D8
6078
6038
6018
F008
ENDCHAR
STARTCHAR char111
ENCODING 210
SWIDTH 939 0
DWIDTH 13 0
BBX 12 13 1 0
BITMAP
0C00
0600
0000
0F80
30C0
6060
C030
C030
C030
C030
6060
30C0
1F00
ENDCHAR
STARTCHAR char111
ENCODING 211
SWIDTH 939 0
DWIDTH 13 0
BBX 12 13 1 0
BITMAP
0300
0600
0000
0F80
30C0
6060
C030
C030
C030
C030
6060
30C0
1F00
ENDCHAR
STARTCHAR char111
ENCODING 212
SWIDTH 939 0
DWIDTH 13 0
BBX 12 13 1 0
BITMAP
0600
0D00
0000
0F80
30C0
6060
C030
C030
C030
C030
6060
30C0
1F00
ENDCHAR
STARTCHAR char111
ENCODING 213
SWIDTH 939 0
DWIDTH 13 0
BBX 12 13 1 0
BITMAP
0680
0B00
0000
0F80
30C0
6060
C030
C030
C030
C030
6060
30C0
1F00
ENDCHAR
STARTCHAR char111
ENCODING 214
SWIDTH 939 0
DWIDTH 13 0
BBX 12 13 1 0
BITMAP
0D80
0D80
0000
0F80
30C0
6060
C030
C030
C030
C030
6060
30C0
1F00
ENDCHAR
STARTCHAR char215
ENCODING 215
SWIDTH 433 0
DWIDTH 6 0
BBX 5 5 1 1
BITMAP
88
50
20
50
88
ENDCHAR
STARTCHAR char111
ENCODING 216
SWIDTH 1012 0
DWIDTH 14 0
BBX 13 12 1 0
BITMAP
0F98
38F0
6070
60F0
C198
C318
C618
CC18
7830
7030
78E0
CF80
ENDCHAR
STARTCHAR char117
ENCODING 217
SWIDTH 939 0
DWIDTH 13 0
BBX 12 13 1 0
BITMAP
0C00
0600
0000
F0F0
6060
6060
6060
6060
6060
6060
30C0
30C0
1F80
ENDCHAR
STARTCHAR char117
ENCODING 218
SWIDTH 939 0
DWIDTH 13 0
BBX 12 13 1 0
BITMAP
0300
0600
0000
F0F0
6060
6060
6060
6060
6060
6060
30C0
30C0
1F80
ENDCHAR
STARTCHAR char117
ENCODING 219
SWIDTH 939 0
DWIDTH 13 0
BBX 12 13 1 0
BITMAP
0600
0B00
0000
F0F0
6060
6060
6060
6060
6060
6060
30C0
30C0
1F80
ENDCHAR
STARTCHAR char117
ENCODING 220
SWIDTH 939 0
DWIDTH 13 0
BBX 12 13 1 0
BITMAP
1980
1980
0000
F0F0
6060
6060
6060
6060
6060
6060
30C0
30C0
1F80
ENDCHAR
STARTCHAR char121
ENCODING 221
SWIDTH 867 0
DWIDTH 12 0
BBX 12 13 0 0
BITMAP
0180
0200
F8F0
3040
1880
0D00
0D00
0600
0600
0600
0600
0600
0F00
ENDCHAR
STARTCHAR char222
ENCODING 222
SWIDTH 650 0
DWIDTH 9 0
BBX 8 12 1 0
BITMAP
F0
60
60
7C
66
63
63
62
7C
60
60
F0
ENDCHAR
STARTCHAR char33
ENCODING 223
SWIDTH 722 0
DWIDTH 10 0
BBX 9 12 1 0
BITMAP
1C00
3200
6300
6300
6200
6C00
6300
6180
6180
6180
6100
F600
ENDCHAR
STARTCHAR char32
ENCODING 224
SWIDTH 578 0
DWIDTH 8 0
BBX 7 10 1 0
BITMAP
60
30
00
38
5C
0C
1C
6C
CC
76
ENDCHAR
STARTCHAR char32
ENCODING 225
SWIDTH 578 0
DWIDTH 8 0
BBX 7 10 1 0
BITMAP
0C
18
00
38
5C
0C
1C
6C
CC
76
ENDCHAR
STARTCHAR char32
ENCODING 226
SWIDTH 578 0
DWIDTH 8 0
BBX 7 10 1 0
BITMAP
18
2C
00
38
5C
0C
1C
6C
CC
76
ENDCHAR
STARTCHAR char32
ENCODING 227
SWIDTH 578 0
DWIDTH 8 0
BBX 7 10 1 0
BITMAP
34
58
00
38
5C
0C
1C
6C
CC
76
ENDCHAR
STARTCHAR char32
ENCODING 228
SWIDTH 578 0
DWIDTH 8 0
BBX 7 10 1 0
BITMAP
6C
6C
00
38
5C
0C
1C
6C
CC
76
ENDCHAR
STARTCHAR char32
ENCODING 229
SWIDTH 578 0
DWIDTH 8 0
BBX 7 12 1 0
BITMAP
38
6C
6C
38
00
38
5C
0C
1C
6C
CC
76
ENDCHAR
STARTCHAR char32
ENCODING 230
SWIDTH 867 0
DWIDTH 12 0
BBX 11 7 1 0
BITMAP
3BC0
5E60
0FE0
1C00
6C00
CE60
77C0
ENDCHAR
STARTCHAR char34
ENCODING 231
SWIDTH 578 0
DWIDTH 8 0
BBX 7 11 1 -4
BITMAP
3C
46
C0
C0
C0
E6
7C
10
18
0C
38
ENDCHAR
STARTCHAR char36
ENCODING 232
SWIDTH 578 0
DWIDTH 8 0
BBX 7 10 1 0
BITMAP
30
18
00
3C
66
FE
C0
C0
E6
7C
ENDCHAR
STARTCHAR char36
ENCODING 233
SWIDTH 578 0
DWIDTH 8 0
BBX 7 10 1 0
BITMAP
0C
18
00
3C
66
FE
C0
C0
E6
7C
ENDCHAR
STARTCHAR char36
ENCODING 234
SWIDTH 578 0
DWIDTH 8 0
BBX 7 10 1 0
BITMAP
18
2C
00
3C
66
FE
C0
C0
E6
7C
ENDCHAR
STARTCHAR char36
ENCODING 235
SWIDTH 578 0
DWIDTH 8 0
BBX 7 10 1 0
BITMAP
6C
6C
00
3C
66
FE
C0
C0
E6
7C
ENDCHAR
STARTCHAR char105
ENCODING 236
SWIDTH 361 0
DWIDTH 5 0
BBX 4 10 1 0
BITMAP
C0
60
00
60
E0
60
60
60
60
F0
ENDCHAR
STARTCHAR char105
ENCODING 237
SWIDTH 361 0
DWIDTH 5 0
BBX 4 10 1 0
BITMAP
30
60
00
60
E0
60
60
60
60
F0
ENDCHAR
STARTCHAR char105
ENCODING 238
SWIDTH 361 0
DWIDTH 5 0
BBX 4 10 1 0
BITMAP
60
B0
00
60
E0
60
60
60
60
F0
ENDCHAR
STARTCHAR char105
ENCODING 239
SWIDTH 361 0
DWIDTH 5 0
BBX 4 10 1 0
BITMAP
90
B0
00
60
E0
60
60
60
60
F0
ENDCHAR
STARTCHAR char241
ENCODING 240
SWIDTH 578 0
DWIDTH 8 0
BBX 8 12 0 0
BITMAP
60
30
FE
18
0C
1E
27
63
63
63
66
3C
ENDCHAR
STARTCHAR char110
ENCODING 241
SWIDTH 722 0
DWIDTH 10 0
BBX 9 10 1 0
BITMAP
1A00
2C00
0000
5E00
F700
6300
6300
6300
6300
F780
ENDCHAR
STARTCHAR char111
ENCODING 242
SWIDTH 650 0
DWIDTH 9 0
BBX 8 10 1 0
BITMAP
30
18
00
3E
47
C3
C3
C3
E2
7C
ENDCHAR
STARTCHAR char111
ENCODING 243
SWIDTH 650 0
DWIDTH 9 0
BBX 8 10 1 0
BITMAP
0C
18
00
3E
47
C3
C3
C3
E2
7C
ENDCHAR
STARTCHAR char111
ENCODING 244
SWIDTH 650 0
DWIDTH 9 0
BBX 8 10 1 0
BITMAP
18
2C
00
3E
47
C3
C3
C3
E2
7C
ENDCHAR
STARTCHAR char111
ENCODING 245
SWIDTH 650 0
DWIDTH 9 0
BBX 8 10 1 0
BITMAP
1A
2C
00
3E
47
C3
C3
C3
E2
7C
ENDCHAR
STARTCHAR char111
ENCODING 246
SWIDTH 650 0
DWIDTH 9 0
BBX 8 10 1 0
BITMAP
36
36
00
3E
47
C3
C3
C3
E2
7C
ENDCHAR
STARTCHAR char247
ENCODING 247
SWIDTH 650 0
DWIDTH 9 0
BBX 8 7 1 0
BITMAP
18
18
00
FF
00
18
18
ENDCHAR
STARTCHAR char111
ENCODING 248
SWIDTH 650 0
DWIDTH 9 0
BBX 9 9 0 -1
BITMAP
0080
1D00
2600
6700
6B00
7300
3200
5C00
8000
ENDCHAR
STARTCHAR char117
ENCODING 249
SWIDTH 650 0
DWIDTH 9 0
BBX 8 10 1 0
BITMAP
30
18
00
EE
66
66
66
66
76
3B
ENDCHAR
STARTCHAR char117
ENCODING 250
SWIDTH 650 0
DWIDTH 9 0
BBX 8 10 1 0
BITMAP
0C
18
00
EE
66
66
66
66
76
3B
ENDCHAR
STARTCHAR char117
ENCODING 251
SWIDTH 650 0
DWIDTH 9 0
BBX 8 10 1 0
BITMAP
18
2C
00
EE
66
66
66
66
76
3B
ENDCHAR
STARTCHAR char117
ENCODING 252
SWIDTH 650 0
DWIDTH 9 0
BBX 8 10 1 0
BITMAP
6C
6C
00
EE
66
66
66
66
76
3B
ENDCHAR
STARTCHAR char121
ENCODING 253
SWIDTH 506 0
DWIDTH 7 0
BBX 8 14 0 -4
BITMAP
0C
18
00
EF
46
26
34
1C
1C
18
10
30
60
40
ENDCHAR
STARTCHAR char222
ENCODING 254
SWIDTH 650 0
DWIDTH 9 0
BBX 8 12 1 -3
BITMAP
F0
60
60
6C
76
63
63
62
7C
60
60
F0
ENDCHAR
STARTCHAR char121
ENCODING 255
SWIDTH 506 0
DWIDTH 7 0
BBX 8 14 0 -4
BITMAP
36
36
00
EF
46
26
34
1C
1C
18
10
30
60
40
ENDCHAR
ENDFONT
